<svg xmlns="http://www.w3.org/2000/svg" viewBox="0 0 82.24 326.11"><defs><style>.cls-1{fill:#5f3f2b;}.cls-2{fill:#f4e1ab;}.cls-3{fill:#414042;}.cls-4{fill:#a97c50;}.cls-5{fill:#301210;}.cls-6{fill:#4c3223;}.cls-7{fill:#fff9e9;}</style></defs><title>F2</title><g id="Layer_2" data-name="Layer 2"><g id="Layer_1-2" data-name="Layer 1"><path class="cls-1" d="M38.42,21.86S14.51,24,17,49.83c-5,28.21,20.08,34,20.08,34l17.17-1.69S60.06,55,59.79,54.82,38.42,21.86,38.42,21.86Z"/><path class="cls-2" d="M0,5.32a4.1,4.1,0,0,1,8.2-.16c0,1.21.07,2.65.14,4.31v.06a193.85,193.85,0,0,0,4.35,33.72c5,22.11,9.65,52.79,9.7,53.1l-8.24.28c-.05-.31-4.48-29.75-9.45-51.56A200.62,200.62,0,0,1,.12,9.47h0C.06,7.88,0,6.49,0,5.32Z"/><path class="cls-2" d="M59.85,95.2c0-.3,4.66-31,9.7-53.09A192.26,192.26,0,0,0,73.84,9.47c0-.37,0-.73,0-1.08C74,6.71,74,5.23,74,4a4.11,4.11,0,0,1,8.21.15c0,1.18-.06,2.57-.13,4.14,0,.38,0,.76,0,1.16a199.33,199.33,0,0,1-4.52,34.46c-5,21.81-9.4,51.25-9.45,51.55Z"/><path class="cls-3" d="M63.65,204.91c-1.43,12.25-4.3,25.42-6.7,39-2.18,12.3,0,21.69-.42,32.22-1,23.84-3.72,43.34-3.72,43.34H45.45a318.89,318.89,0,0,0,0-38.41C44.72,267.39,44.24,229,44,204.91c-.13-12.13-.19-20.66-.19-20.66H64.28A102.91,102.91,0,0,1,63.65,204.91Z"/><path class="cls-3" d="M40.16,184.25s-.06,8.53-.19,20.66c-.24,24.13-.72,62.48-1.45,76.19a321.5,321.5,0,0,0,0,38.41H31.17s-2.71-19.5-3.72-43.34C27,265.64,29.2,256.25,27,244c-2.41-13.62-5.28-26.8-6.71-39a104.41,104.41,0,0,1-.63-20.66Z"/><rect class="cls-3" x="25.71" y="184.26" width="29.35" height="17.43"/><path class="cls-2" d="M64.28,184.25H19.75c1.87-18.84,8.51-21.52,8.47-39.24,0-8.88-3.58-21.3-7.12-31.48s-7-18-7-18a15.1,15.1,0,0,1,8.07-13.37,14.93,14.93,0,0,1,7.05-1.75h24A15.11,15.11,0,0,1,68.33,95.51s-2.88,8-5.85,18.08-6,22.53-6.38,31.17C55.45,162,61.28,164.66,64.28,184.25Z"/><path class="cls-4" d="M41.77,86.8h0a5.8,5.8,0,0,0,5.8-5.8V71.52H36V81A5.8,5.8,0,0,0,41.77,86.8Z"/><path class="cls-4" d="M21.7,50.42a5.46,5.46,0,1,0,5.46-5.56A5.51,5.51,0,0,0,21.7,50.42Z"/><path class="cls-4" d="M40.59,74.17h1.87A13.46,13.46,0,0,0,55.88,60.74V38.92c0-7.38-10.41-13.43-13.42-13.43H40.59A13.47,13.47,0,0,0,27.16,38.92V60.74A13.46,13.46,0,0,0,40.59,74.17Z"/><path class="cls-4" d="M50.42,50.42a5.47,5.47,0,1,0,5.46-5.56A5.51,5.51,0,0,0,50.42,50.42Z"/><path class="cls-1" d="M58.88,34.07c0-6.71-7.21-12.21-13.82-12.21H38.42c-6.62,0-13.82,5.5-13.82,12.21,0,0,1.31,18.55,3.45,20.75V43a7.61,7.61,0,0,1,7.54-7.65h12.3A7.62,7.62,0,0,1,55.43,43V54.82C57.56,52.62,58.88,34.07,58.88,34.07Z"/><path class="cls-4" d="M34.78,80.39c-.18,4.85,4.48,5.36,5.75,7.64a28.92,28.92,0,0,0,1.1,7.41s1-2,1-7.41c0,0,5.92-2.53,5.74-7.64Z"/><path class="cls-5" d="M41.63,326.11H27.52v-4a7.06,7.06,0,0,1,7.06-7.06h0a7.05,7.05,0,0,1,7.05,7.06Z"/><path class="cls-5" d="M56.91,326.11H42.79v-4a7.06,7.06,0,0,1,7.06-7.06h0a7.06,7.06,0,0,1,7.06,7.06Z"/><path class="cls-6" d="M32.62,36s20.61.57,21.24,21c.5,16.18,0,23.38,0,23.38l-5.24-.31s19.71,5,22.42-12.19c2.42-15.3-8.18-16.66-5.72-29.55S32.62,5.78,32.62,36Z"/><path class="cls-4" d="M0,5.32a4.1,4.1,0,0,1,8.2-.16c0,1.21.07,2.65.14,4.31H.12C.06,7.88,0,6.49,0,5.32Z"/><path class="cls-4" d="M73.84,9.47c0-.37,0-.73,0-1.08C74,6.71,74,5.23,74,4a4.11,4.11,0,0,1,8.21.15c0,1.18-.06,2.57-.13,4.14,0,.38,0,.76,0,1.16Z"/><polygon class="cls-7" points="48.4 80.39 42.6 88.03 54.14 92.39 48.4 80.39"/><polygon class="cls-7" points="34.73 80.39 40.53 88.03 28.99 92.39 34.73 80.39"/><polygon class="cls-3" points="40.47 185.19 42.77 178.27 45.64 184.72 40.47 185.19"/></g></g></svg>