<svg xmlns="http://www.w3.org/2000/svg" viewBox="0 0 82.24 326.1"><defs><style>.cls-1{fill:#5f3f2b;}.cls-2{fill:#fbd5a2;}.cls-3{fill:#7eb4b7;}.cls-4{fill:#f18d4f;}.cls-5{fill:#4c3b26;}.cls-6{fill:#9fd6d6;}</style></defs><title>F3</title><g id="Layer_2" data-name="Layer 2"><g id="Layer_3" data-name="Layer 3"><path class="cls-1" d="M43.83,21.86s23.9,2.14,21.38,28c5,28.2-20.08,34-20.08,34L28,82.16S22.18,55,22.45,54.82,43.83,21.86,43.83,21.86Z"/><path class="cls-2" d="M82.24,5.32A4.11,4.11,0,0,0,74,5.16c0,1.21-.06,2.69-.14,4.37a193.68,193.68,0,0,1-4.34,33.72c-5,22.11-9.65,52.79-9.7,53.09l8.24.28c0-.3,4.48-29.74,9.45-51.55A200.93,200.93,0,0,0,82.12,9.46C82.18,7.88,82.21,6.49,82.24,5.32Z"/><path class="cls-2" d="M0,4.17A4.11,4.11,0,0,1,8.21,4c0,1.21.06,2.69.13,4.37a194.94,194.94,0,0,0,4.35,33.72c5,22.11,9.65,52.79,9.7,53.09l-8.24.28c-.05-.3-4.48-29.74-9.45-51.56A200.71,200.71,0,0,1,.12,8.31C.06,6.74,0,5.34,0,4.17Z"/><path class="cls-2" d="M18.59,204.91c1.43,12.25,4.3,25.42,6.7,39,2.18,12.3,0,21.69.42,32.22,1,23.84,3.72,43.34,3.72,43.34h7.36a318.89,318.89,0,0,1,0-38.41c.73-13.71,1.21-52.06,1.45-76.19.13-12.13.19-20.66.19-20.66H18A102.91,102.91,0,0,0,18.59,204.91Z"/><path class="cls-2" d="M42.08,184.25s.06,8.53.19,20.66c.24,24.13.72,62.48,1.45,76.19a321.5,321.5,0,0,1,0,38.41h7.35s2.71-19.5,3.72-43.34c.45-10.53-1.75-19.92.42-32.22,2.41-13.62,5.28-26.8,6.71-39a104.41,104.41,0,0,0,.63-20.66Z"/><rect class="cls-3" x="27.18" y="184.25" width="29.35" height="17.43" transform="translate(83.71 385.94) rotate(180)"/><path class="cls-4" d="M18,184.25H62.49C60.62,165.41,54,162.73,54,145c0-8.88,3.58-21.3,7.12-31.48s7-18,7-18a15.1,15.1,0,0,0-8.07-13.37A14.93,14.93,0,0,0,53,80.39H29A15.11,15.11,0,0,0,13.91,95.51s2.88,8,5.85,18.08,6,22.53,6.38,31.17C26.79,162,21,164.66,18,184.25Z"/><path class="cls-2" d="M40.47,86.8h0A5.8,5.8,0,0,1,34.68,81V71.52H46.27V81A5.8,5.8,0,0,1,40.47,86.8Z"/><path class="cls-2" d="M60.55,50.41a5.47,5.47,0,1,1-5.47-5.55A5.52,5.52,0,0,1,60.55,50.41Z"/><path class="cls-2" d="M41.65,74.17H39.78A13.47,13.47,0,0,1,26.36,60.74V38.92c0-7.39,10.41-13.43,13.42-13.43h1.87A13.46,13.46,0,0,1,55.08,38.92V60.74A13.47,13.47,0,0,1,41.65,74.17Z"/><path class="cls-2" d="M31.82,50.41a5.47,5.47,0,1,1-5.46-5.55A5.51,5.51,0,0,1,31.82,50.41Z"/><path class="cls-1" d="M23.37,34.07c0-6.72,7.2-12.21,13.82-12.21h6.64c6.61,0,13.82,5.49,13.82,12.21,0,0-1.32,18.54-3.45,20.75V43a7.62,7.62,0,0,0-7.54-7.65H34.35A7.61,7.61,0,0,0,26.82,43V54.82C24.68,52.61,23.37,34.07,23.37,34.07Z"/><path class="cls-2" d="M53.13,80.39C54,93,49.74,102.77,40.61,102.77S27.18,94.91,28.08,80.39Z"/><path class="cls-5" d="M40.61,326.1H54.72v-4a7.06,7.06,0,0,0-7.06-7.06h0a7.06,7.06,0,0,0-7,7.06Z"/><path class="cls-5" d="M25.33,315.09H39.45a0,0,0,0,1,0,0v4a7.06,7.06,0,0,1-7.06,7.06h0A7.06,7.06,0,0,1,25.33,319v-4a0,0,0,0,1,0,0Z" transform="translate(64.78 641.19) rotate(180)"/><path class="cls-1" d="M49.62,36S29,36.52,28.38,57c-.5,16.19,0,23.39,0,23.39l5.24-.31s-19.71,5-22.42-12.19c-2.42-15.3,8.18-16.66,5.72-29.55S49.62,5.78,49.62,36Z"/><path class="cls-3" d="M62.55,184.25H42.08s.06,8.53.19,20.66H61.92A104.41,104.41,0,0,0,62.55,184.25Z"/><path class="cls-3" d="M18.59,204.91H38.24c.13-12.13.19-20.66.19-20.66H18A102.91,102.91,0,0,0,18.59,204.91Z"/><rect class="cls-6" x="17.68" y="204.91" width="20.55" height="4.75" transform="translate(55.92 414.57) rotate(180)"/><rect class="cls-6" x="42.17" y="204.91" width="20.55" height="4.75" transform="translate(104.89 414.57) rotate(180)"/><path class="cls-2" d="M13.91,95.51s2.88,8,5.85,18.08c2.87-4.33,3.13-8.47,3.13-14.91,0-5.37.28-12-1.8-16A15.1,15.1,0,0,0,13.91,95.51Z"/><path class="cls-2" d="M57.65,98.11c0,6.41.62,11.1,3.49,15.42,3.52-10.12,7-18,7-18a15.1,15.1,0,0,0-8.07-13.37C57.86,86.23,57.65,92.51,57.65,98.11Z"/></g></g></svg>