<svg xmlns="http://www.w3.org/2000/svg" viewBox="0 0 82.24 327.1"><defs><style>.cls-1{fill:#ffe8cc;}.cls-2{fill:#ebb670;}.cls-3{fill:#4c3c2d;}.cls-4{fill:#eef2d9;}.cls-5{fill:#301210;}.cls-6{fill:#fbd5a2;}.cls-7{fill:#fff;}.cls-8{fill:#231f20;}</style></defs><title>F4</title><g id="Layer_2" data-name="Layer 2"><g id="Layer_1-2" data-name="Layer 1"><path class="cls-1" d="M44.56,22.86s22.06-.72,21.38,28-20.08,34-20.08,34H24.1s-1.19-28.82-.92-29S44.56,22.86,44.56,22.86Z"/><path class="cls-2" d="M52.81,320.51H45.45a318.89,318.89,0,0,0,0-38.41c-1.09-20.6-1.63-96.85-1.63-96.85H64.28c1.5,17.47-3.5,38-7.33,59.7-2.18,12.3,0,21.69-.42,32.22C55.51,301,52.81,320.51,52.81,320.51Z"/><path class="cls-2" d="M31.17,320.51h7.35a321.5,321.5,0,0,1,0-38.41c1.1-20.6,1.64-96.85,1.64-96.85H19.69c-1.49,17.47,3.51,38,7.34,59.7,2.17,12.3,0,21.69.42,32.22C28.46,301,31.17,320.51,31.17,320.51Z"/><path class="cls-3" d="M64.55,185.25H19.75c-.33-17.83,8.51-21.52,8.47-39.24s-14.14-49.5-14.14-49.5A15.12,15.12,0,0,1,29.2,81.39h24A15.12,15.12,0,0,1,68.33,96.51s-11.58,32-12.23,49.25S64.83,167.22,64.55,185.25Z"/><path class="cls-2" d="M35.41,72.52H47a0,0,0,0,1,0,0V82a5.8,5.8,0,0,1-5.8,5.8h0a5.8,5.8,0,0,1-5.8-5.8V72.52A0,0,0,0,1,35.41,72.52Z"/><ellipse class="cls-2" cx="55.81" cy="51.41" rx="5.46" ry="5.56"/><path class="cls-2" d="M42.39,75.17H40.52A13.47,13.47,0,0,1,27.09,61.74V39.92c0-7.39,10.41-13.43,13.43-13.43h1.87A13.46,13.46,0,0,1,55.81,39.92V61.74A13.47,13.47,0,0,1,42.39,75.17Z"/><path class="cls-2" d="M32.55,51.41a5.47,5.47,0,1,1-5.46-5.55A5.51,5.51,0,0,1,32.55,51.41Z"/><path class="cls-1" d="M24.1,35.07c0-6.72,7.2-12.21,13.82-12.21h6.64c6.61,0,13.82,5.49,13.82,12.21,0,0-1.32,18.54-3.45,20.75V44a7.61,7.61,0,0,0-7.54-7.65H35.09A7.61,7.61,0,0,0,27.55,44V55.82C25.41,53.61,24.1,35.07,24.1,35.07Z"/><polygon class="cls-4" points="32.04 81.34 40.87 128.65 49.85 81.39 41.21 84.49 32.04 81.34"/><rect class="cls-2" x="25.71" y="185.25" width="29.35" height="17.43"/><path class="cls-5" d="M41.63,327.1H27.52v-4a7.06,7.06,0,0,1,7.06-7.06h0a7.06,7.06,0,0,1,7.05,7.06Z"/><path class="cls-5" d="M49.85,316.09h0a7.06,7.06,0,0,1,7.06,7.06v4a0,0,0,0,1,0,0H42.79a0,0,0,0,1,0,0v-4A7.06,7.06,0,0,1,49.85,316.09Z"/><path class="cls-3" d="M0,5.32a4.11,4.11,0,0,1,8.21-.16c0,1.21.06,2.69.13,4.37a194.83,194.83,0,0,0,4.35,33.72c5,22.11,9.65,52.79,9.7,53.1l-8.24.27c-.05-.3-4.48-29.74-9.45-51.55A200.82,200.82,0,0,1,.12,9.46C.06,7.88,0,6.49,0,5.32Z"/><path class="cls-6" d="M0,5.32a4.11,4.11,0,0,1,8.21-.16c0,1.21.06,2.69.13,4.37L.12,9.46C.06,7.88,0,6.49,0,5.32Z"/><path class="cls-3" d="M82.24,4.17A4.11,4.11,0,0,0,74,4c0,1.21-.06,2.69-.14,4.37a193.79,193.79,0,0,1-4.34,33.72c-5,22.11-9.65,52.79-9.7,53.09l8.24.28c0-.3,4.48-29.74,9.45-51.55A200.91,200.91,0,0,0,82.12,8.31C82.18,6.74,82.21,5.34,82.24,4.17Z"/><path class="cls-6" d="M82.24,4.17A4.11,4.11,0,0,0,74,4c0,1.21-.06,2.69-.14,4.37l8.23-.08C82.18,6.74,82.21,5.34,82.24,4.17Z"/><path class="cls-1" d="M50.35,37s-20.61.56-21.24,21c-.5,16.19,0,23.39,0,23.39l5.24-.31s-8.91,2.63-9.53,11.5.89,11.19.89,11.19S4.57,85.18,8.34,70.16s11.77-17.93,9.31-30.82S50.35,6.78,50.35,37Z"/><polygon class="cls-7" points="47.71 78.07 58.38 94 41.12 84.41 47.71 78.07"/><polygon class="cls-7" points="34.71 78.72 24.1 93.41 41.21 84.49 34.71 78.72"/><rect class="cls-8" x="19.69" y="185.25" width="44.86" height="53.4"/></g></g></svg>