<svg xmlns="http://www.w3.org/2000/svg" viewBox="0 0 82.24 325.85"><defs><style>.cls-1{fill:#231f20;}.cls-2{fill:#fbd5a2;}.cls-3{fill:#e53c7d;}.cls-4{fill:#4c3b26;}.cls-5{fill:#b7346f;}</style></defs><title>F5</title><g id="Layer_2" data-name="Layer 2"><g id="Layer_3" data-name="Layer 3"><rect class="cls-1" x="21.29" y="16.69" width="39.65" height="132.99" rx="19.26" ry="19.26" transform="translate(82.24 166.37) rotate(180)"/><path class="cls-2" d="M82.24,5.32A4.11,4.11,0,0,0,74,5.16c0,1.21-.06,2.69-.14,4.37a193.68,193.68,0,0,1-4.34,33.72c-5,22.11-9.65,52.79-9.7,53.09l8.24.28c0-.3,4.48-29.74,9.45-51.55A200.93,200.93,0,0,0,82.12,9.46C82.18,7.88,82.21,6.49,82.24,5.32Z"/><path class="cls-2" d="M0,4.17A4.11,4.11,0,0,1,8.21,4c0,1.21.06,2.69.13,4.37a194.94,194.94,0,0,0,4.35,33.72c5,22.11,9.65,52.79,9.7,53.09l-8.24.28c-.05-.3-4.48-29.74-9.45-51.56A200.71,200.71,0,0,1,.12,8.31C.06,6.74,0,5.34,0,4.17Z"/><path class="cls-2" d="M29.76,319.26h7.36a318.89,318.89,0,0,1,0-38.41c1.09-20.6,1.64-96.85,1.64-96.85H18.29c-1.5,17.47,3.5,38,7.33,59.7,2.18,12.3,0,21.69.42,32.22C27.06,299.76,29.76,319.26,29.76,319.26Z"/><path class="cls-2" d="M51.4,319.26H44.05a321.5,321.5,0,0,0,0-38.41C43,260.25,42.41,184,42.41,184H62.88c-.52,19.67-3.51,38-7.34,59.7-2.17,12.3,0,21.69-.42,32.22C54.11,299.76,51.4,319.26,51.4,319.26Z"/><path class="cls-3" d="M16.91,184H62.82c-3.23-27.19-8.51-26.52-8.47-41.24,0-17.72,14.14-47.5,14.14-47.5A15.12,15.12,0,0,0,53.37,80.14h-24A15.12,15.12,0,0,0,14.24,95.26s12.58,29,13.23,46.25C28,155.74,19,159.44,16.91,184Z"/><path class="cls-2" d="M41.36,86.55h0a5.8,5.8,0,0,0,5.8-5.8V71.27H35.57v9.48A5.8,5.8,0,0,0,41.36,86.55Z"/><path class="cls-2" d="M21.29,50.16a5.47,5.47,0,1,0,5.47-5.55A5.52,5.52,0,0,0,21.29,50.16Z"/><path class="cls-2" d="M41.12,73.92h0A14.41,14.41,0,0,0,55.48,59.56V38.67c0-7.39-10.41-13.43-13.43-13.43h-.93A14.4,14.4,0,0,0,26.76,39.6v20A14.41,14.41,0,0,0,41.12,73.92Z"/><path class="cls-2" d="M50,50.16a5.47,5.47,0,1,0,5.46-5.55A5.51,5.51,0,0,0,50,50.16Z"/><path class="cls-1" d="M58.47,33.82c0-3-3-14.63-13.55-14-16.16-8.09-20.73,10-20.73,14,0,0,.43,19.69,2.57,21.9l.88-13a7.62,7.62,0,0,1,7.54-7.65h12.3A7.61,7.61,0,0,1,55,42.74l.36,12.08C57.52,52.62,58.47,33.82,58.47,33.82Z"/><path class="cls-2" d="M51.25,80.14a36.9,36.9,0,0,1-9.9,22.38,27.38,27.38,0,0,1-9.9-22.38Z"/><rect class="cls-2" x="27.51" y="184" width="29.35" height="17.43" transform="translate(84.37 385.44) rotate(180)"/><path class="cls-4" d="M40.94,314.84H55.05a0,0,0,0,1,0,0v4A7.06,7.06,0,0,1,48,325.85h0a7.06,7.06,0,0,1-7.06-7.06v-4A0,0,0,0,1,40.94,314.84Z" transform="translate(95.99 640.69) rotate(180)"/><path class="cls-4" d="M25.66,325.85H39.78v-4a7.06,7.06,0,0,0-7.06-7.06h0a7.06,7.06,0,0,0-7.06,7.06Z"/><path class="cls-3" d="M8.1,227.66l60.78-5s-6.34-38.38-7.16-47.38l-43-.53C17.51,181.19,8.1,227.66,8.1,227.66Z"/><rect class="cls-5" x="26.71" y="144.19" width="28.77" height="5.08" transform="translate(82.2 293.46) rotate(180)"/><path class="cls-1" d="M52.64,34.72s-7.08-3.62-14.15,6.89-11.65,4.33-11.65,4.33V30.11Z"/></g></g></svg>