<svg xmlns="http://www.w3.org/2000/svg" viewBox="0 0 101.41 353.6"><defs><style>.cls-1{fill:#755c49;}.cls-2{fill:#301210;}.cls-3{fill:#896e57;}.cls-4{fill:#997a62;}.cls-5{fill:#f3ecf1;}.cls-6{fill:#fbd5a2;}.cls-7{fill:#c66d30;}.cls-8{fill:#f4a269;}.cls-9{fill:#fff;}.cls-10{fill:#eaca63;}</style></defs><title>M1</title><g id="Layer_2" data-name="Layer 2"><g id="Layer_1-2" data-name="Layer 1"><polygon class="cls-1" points="38.13 346.74 48.35 346.74 48.35 211.62 26.95 211.62 38.13 346.74"/><polygon class="cls-1" points="64.83 346.74 54.6 346.74 54.6 211.62 76.01 211.62 64.83 346.74"/><rect class="cls-1" x="34.02" y="211.62" width="33.36" height="14.3"/><path class="cls-2" d="M43.07,342.15h.19a7.93,7.93,0,0,1,7.93,7.93v3.53a0,0,0,0,1,0,0h-16a0,0,0,0,1,0,0v-3.53A7.93,7.93,0,0,1,43.07,342.15Z"/><path class="cls-2" d="M60.44,342.15h.19a7.93,7.93,0,0,1,7.93,7.93v3.53a0,0,0,0,1,0,0h-16a0,0,0,0,1,0,0v-3.53A7.93,7.93,0,0,1,60.44,342.15Z"/><path class="cls-3" d="M79.54,215.62H22.87l-3-104.13A16.44,16.44,0,0,1,36.32,95H65.09a16.44,16.44,0,0,1,16.45,16.45Z"/><polygon class="cls-4" points="52.24 169.39 60.42 95.04 67.05 106.66 62.65 112.58 68.75 117.58 52.24 169.39"/><polygon class="cls-4" points="52.24 169.39 41.81 95.04 35.18 106.66 39.58 112.58 33.48 117.58 52.24 169.39"/><polygon class="cls-5" points="40.73 95.04 60.42 95.04 52.24 169.39 40.73 95.04"/><path class="cls-6" d="M50.71,101.71h0a6.6,6.6,0,0,1-6.6-6.59V85.81H57.3v9.31A6.59,6.59,0,0,1,50.71,101.71Z"/><ellipse class="cls-6" cx="69.69" cy="56.53" rx="7.04" ry="7.49"/><rect class="cls-6" x="32.69" y="22.92" width="37" height="65.65" rx="14.57" ry="14.57"/><ellipse class="cls-6" cx="32.69" cy="56.53" rx="7.04" ry="7.49"/><path class="cls-7" d="M63.61,74a12.42,12.42,0,0,1-24.84,0c0-6.83,5.56-9.36,12.42-9.36S63.61,67.13,63.61,74Z"/><path class="cls-7" d="M71.43,60.74V72.2c0,10.34-8,18.8-17.66,18.8H48.61C38.9,91,31,82.54,31,72.2V60.74A15.56,15.56,0,0,1,35,50.17V64.82c0,5.21,4,9.48,8.91,9.48H58.45c4.9,0,8.91-4.27,8.91-9.48V50.17A15.56,15.56,0,0,1,71.43,60.74Z"/><path class="cls-8" d="M31,51V34.5C31,25.44,37.34,18,45.16,18H57.22C65,18,71.43,25.44,71.43,34.5V51a17.79,17.79,0,0,1-4.07,11.5V52.53c0-13.78-23.43-16.32-23.43-16.32C39,36.21,35,40.85,35,46.53V62.47A17.79,17.79,0,0,1,31,51Z"/><path class="cls-6" d="M59.44,73.16c0,2.56-3.46,4.64-7.71,4.64S44,75.72,44,73.16c0,0,6.23,0,7.71-4.64C53.6,73.16,59.44,73.16,59.44,73.16Z"/><path class="cls-3" d="M2,10.75c.21-1.69.42-3.21.62-4.54A6.39,6.39,0,0,1,15.26,8.1c-.19,1.3-.4,2.8-.61,4.5a294.73,294.73,0,0,0-1.47,49.46c2,40.52,21,48,21.16,48l-4,12.11c-1.12-.37-27.43-9.72-29.87-59.52A304,304,0,0,1,2,10.75Z"/><path class="cls-3" d="M67.91,109.67c.68-.3,5-2.29,9.48-8.52s10.29-18.43,11-39.81a294.83,294.83,0,0,0-2.11-49c-.25-1.87-.5-3.51-.73-4.9A6.39,6.39,0,0,1,98.21,5.35c.22,1.33.46,2.87.7,4.58a305.08,305.08,0,0,1,2.28,51.85c-1.75,49.84-27.93,59.54-29,59.94l-4.21-12.06Z"/><path class="cls-6" d="M2,10.75c.21-1.69.42-3.21.62-4.54A6.39,6.39,0,0,1,15.26,8.1c-.19,1.3-.4,2.8-.61,4.5Z"/><path class="cls-6" d="M90.44.17a6.39,6.39,0,0,1,7.77,5.18c.22,1.33.46,2.87.7,4.58L86.32,12.31c-.25-1.87-.5-3.51-.73-4.9A6.4,6.4,0,0,1,90.44.17Z"/><polygon class="cls-1" points="63.63 217.13 39.77 217.13 51.7 205.77 63.63 217.13"/><polygon class="cls-9" points="57.29 91.35 50.44 101.72 57.16 108.76 63.6 97.5 57.29 91.35"/><polygon class="cls-9" points="44.07 91.49 50.44 101.72 43.85 108.76 37.75 97.63 44.07 91.49"/><polygon class="cls-10" points="50.44 101.72 55.89 136.19 52.24 169.39 47.09 136.16 50.44 101.72"/><polygon class="cls-10" points="50.44 101.72 55.76 107.26 50.97 113.59 45.46 107.04 50.44 101.72"/><path class="cls-8" d="M48,18s19.07-7.16,27.26,16.59C78.86,45.11,73,52,73,52L60.42,41.61Z"/></g></g></svg>