<svg xmlns="http://www.w3.org/2000/svg" viewBox="0 0 101.41 357.43"><defs><style>.cls-1{fill:#6f808b;}.cls-2{fill:#301210;}.cls-3{fill:#7e96a3;}.cls-4{fill:#92acb7;}.cls-5{fill:#f3ecf1;}.cls-6{fill:#a97c50;}.cls-7{fill:#fff;}.cls-8{fill:#4b5860;}.cls-9{fill:#4c3223;}</style></defs><title>M2</title><g id="Layer_2" data-name="Layer 2"><g id="Layer_1-2" data-name="Layer 1"><polygon class="cls-1" points="39.15 350.57 49.37 350.57 49.37 215.44 27.97 215.44 39.15 350.57"/><polygon class="cls-1" points="65.85 350.57 55.62 350.57 55.62 215.44 77.03 215.44 65.85 350.57"/><rect class="cls-1" x="35.04" y="215.44" width="33.36" height="14.3"/><path class="cls-2" d="M44.09,346h.19a7.93,7.93,0,0,1,7.93,7.93v3.53a0,0,0,0,1,0,0h-16a0,0,0,0,1,0,0V353.9A7.93,7.93,0,0,1,44.09,346Z"/><path class="cls-2" d="M61.46,346h.19a7.93,7.93,0,0,1,7.93,7.93v3.53a0,0,0,0,1,0,0h-16a0,0,0,0,1,0,0V353.9A7.93,7.93,0,0,1,61.46,346Z"/><path class="cls-3" d="M80.56,219.44H23.89l-3-104.13A16.44,16.44,0,0,1,37.34,98.87H66.11a16.44,16.44,0,0,1,16.45,16.44Z"/><polygon class="cls-4" points="53.26 173.21 61.44 98.87 68.07 110.49 63.67 116.41 69.77 121.41 53.26 173.21"/><polygon class="cls-4" points="53.26 173.21 42.83 98.87 36.2 110.49 40.6 116.41 34.5 121.41 53.26 173.21"/><polygon class="cls-5" points="41.75 98.87 61.44 98.87 53.26 173.21 41.75 98.87"/><path class="cls-6" d="M51.73,105.53h0a6.6,6.6,0,0,1-6.6-6.59v-9.3H58.32v9.3A6.59,6.59,0,0,1,51.73,105.53Z"/><path class="cls-3" d="M2,10.75c.21-1.69.42-3.21.62-4.54A6.39,6.39,0,0,1,15.26,8.1c-.19,1.3-.4,2.8-.61,4.5a294.73,294.73,0,0,0-1.47,49.46c2,40.52,21,48,21.16,48l-4,12.11c-1.12-.37-27.43-9.72-29.87-59.52A304,304,0,0,1,2,10.75Z"/><path class="cls-3" d="M67.91,109.67c.68-.3,5-2.29,9.48-8.52s10.29-18.43,11-39.81a294.83,294.83,0,0,0-2.11-49c-.25-1.87-.5-3.51-.73-4.9A6.39,6.39,0,0,1,98.21,5.35c.22,1.33.46,2.87.7,4.58a305.08,305.08,0,0,1,2.28,51.85c-1.75,49.84-27.93,59.54-29,59.94l-4.21-12.06Z"/><path class="cls-6" d="M2,10.75c.21-1.69.42-3.21.62-4.54A6.39,6.39,0,0,1,15.26,8.1c-.19,1.3-.4,2.8-.61,4.5Z"/><path class="cls-6" d="M90.44.17a6.39,6.39,0,0,1,7.77,5.18c.22,1.33.46,2.87.7,4.58L86.32,12.31c-.25-1.87-.5-3.51-.73-4.9A6.4,6.4,0,0,1,90.44.17Z"/><polygon class="cls-1" points="64.66 220.95 40.79 220.95 52.73 209.6 64.66 220.95"/><polygon class="cls-7" points="58.31 95.18 51.46 105.55 58.19 112.58 64.63 101.33 58.31 95.18"/><polygon class="cls-7" points="45.09 95.31 51.46 105.55 44.87 112.58 38.77 101.46 45.09 95.31"/><polygon class="cls-8" points="51.46 105.55 56.91 140.02 53.26 173.21 48.12 139.98 51.46 105.55"/><polygon class="cls-8" points="51.46 105.55 56.78 111.08 51.99 117.42 46.48 110.86 51.46 105.55"/><ellipse class="cls-6" cx="68.88" cy="63.82" rx="7.04" ry="7.49"/><ellipse class="cls-6" cx="33.51" cy="63" rx="7.04" ry="7.49"/><path class="cls-6" d="M51.2,93.4h0A18.55,18.55,0,0,1,32.7,74.9V46.25c0-10.17,7.32-18.5,17.5-18.5h0c10.17,0,19.5,8.33,19.5,18.5V74.9A18.56,18.56,0,0,1,51.2,93.4Z"/><path class="cls-9" d="M31,43.32c0-12.13,6.77-17.21,19.22-17.89,13.43-.74,22.07,6.84,22.07,15.89,0,0,.27,23-2.56,26V51.35A10.17,10.17,0,0,0,59.75,41H43.5a10.17,10.17,0,0,0-10,10.32V67.3C30.72,64.33,31,43.32,31,43.32Z"/></g></g></svg>