<svg xmlns="http://www.w3.org/2000/svg" viewBox="0 0 101.41 357.43"><defs><style>.cls-1{fill:#006665;}.cls-2{fill:#301210;}.cls-3{fill:#028985;}.cls-4{fill:#029991;}.cls-5{fill:#f3ecf1;}.cls-6{fill:#fbd5a2;}.cls-7{fill:#fff;}.cls-8{fill:#394463;}.cls-9{fill:#b74f46;}</style></defs><title>M3</title><g id="Layer_2" data-name="Layer 2"><g id="Layer_1-2" data-name="Layer 1"><polygon class="cls-1" points="38.15 350.57 48.37 350.57 48.37 215.44 26.97 215.44 38.15 350.57"/><polygon class="cls-1" points="64.85 350.57 54.62 350.57 54.62 215.44 76.03 215.44 64.85 350.57"/><rect class="cls-1" x="34.04" y="215.44" width="33.36" height="14.3"/><path class="cls-2" d="M43.09,346h.19a7.93,7.93,0,0,1,7.93,7.93v3.53a0,0,0,0,1,0,0h-16a0,0,0,0,1,0,0V353.9A7.93,7.93,0,0,1,43.09,346Z"/><path class="cls-2" d="M60.46,346h.19a7.93,7.93,0,0,1,7.93,7.93v3.53a0,0,0,0,1,0,0h-16a0,0,0,0,1,0,0V353.9A7.93,7.93,0,0,1,60.46,346Z"/><path class="cls-3" d="M79.56,219.44H22.89l-3-104.13A16.44,16.44,0,0,1,36.34,98.87H65.11a16.44,16.44,0,0,1,16.45,16.44Z"/><polygon class="cls-4" points="52.26 173.21 60.44 98.87 67.07 110.49 62.67 116.41 68.77 121.41 52.26 173.21"/><polygon class="cls-4" points="52.26 173.21 41.83 98.87 35.2 110.49 39.6 116.41 33.5 121.41 52.26 173.21"/><polygon class="cls-5" points="40.75 98.87 60.44 98.87 52.26 173.21 40.75 98.87"/><path class="cls-6" d="M50.73,105.53h0a6.6,6.6,0,0,1-6.6-6.59v-9.3H57.32v9.3A6.59,6.59,0,0,1,50.73,105.53Z"/><path class="cls-3" d="M2,10.75c.21-1.69.42-3.21.62-4.53A6.39,6.39,0,0,1,15.26,8.1c-.19,1.3-.4,2.8-.61,4.5a294.73,294.73,0,0,0-1.47,49.46c2,40.52,21,48,21.16,48l-4,12.11c-1.12-.37-27.43-9.72-29.87-59.52A304,304,0,0,1,2,10.75Z"/><path class="cls-3" d="M67.91,109.67c.68-.3,5-2.29,9.48-8.52s10.29-18.43,11-39.81a294.83,294.83,0,0,0-2.11-49c-.25-1.87-.5-3.51-.73-4.9A6.39,6.39,0,0,1,98.21,5.35c.22,1.33.46,2.87.7,4.58a305.08,305.08,0,0,1,2.28,51.85c-1.75,49.84-27.93,59.54-29,59.94l-4.21-12.06Z"/><path class="cls-6" d="M2,10.75c.21-1.69.42-3.21.62-4.53A6.39,6.39,0,0,1,15.26,8.1c-.19,1.3-.4,2.8-.61,4.5Z"/><path class="cls-6" d="M90.44.17a6.39,6.39,0,0,1,7.77,5.18c.22,1.33.46,2.87.7,4.58L86.32,12.31c-.25-1.87-.5-3.51-.73-4.9A6.4,6.4,0,0,1,90.44.17Z"/><polygon class="cls-1" points="63.66 220.95 39.79 220.95 51.73 209.6 63.66 220.95"/><polygon class="cls-7" points="57.31 95.18 50.46 105.55 57.19 112.58 63.63 101.33 57.31 95.18"/><polygon class="cls-7" points="44.09 95.31 50.46 105.55 43.87 112.58 37.77 101.46 44.09 95.31"/><polygon class="cls-8" points="50.46 105.55 55.91 140.02 52.26 173.21 47.12 139.98 50.46 105.55"/><polygon class="cls-8" points="50.46 105.55 55.78 111.08 50.99 117.42 45.48 110.86 50.46 105.55"/><ellipse class="cls-6" cx="68.9" cy="60.54" rx="7.04" ry="7.49"/><rect class="cls-6" x="31.89" y="26.93" width="37" height="65.65" rx="10.51" ry="10.51"/><ellipse class="cls-6" cx="31.89" cy="60.54" rx="7.04" ry="7.49"/><ellipse class="cls-9" cx="50.4" cy="77.97" rx="12.42" ry="12.36"/><path class="cls-9" d="M70.64,64.75V76.2c0,10.34-8,18.8-17.66,18.8H47.82c-9.72,0-17.67-8.46-17.67-18.8V64.75a15.57,15.57,0,0,1,4.08-10.57V68.83c0,5.21,4,9.48,8.9,9.48H57.66c4.9,0,8.9-4.27,8.9-9.48V54.18A15.52,15.52,0,0,1,70.64,64.75Z"/><path class="cls-9" d="M30.15,55V38.5c0-9,6.4-16.46,14.21-16.46H56.43c7.81,0,14.21,7.41,14.21,16.46V55a17.75,17.75,0,0,1-4.08,11.51v-16c0-5.68-4-10.32-8.9-10.32H43.13c-4.9,0-8.9,4.64-8.9,10.32v16A17.8,17.8,0,0,1,30.15,55Z"/><path class="cls-6" d="M58.64,77.16c0,2.57-3.45,4.64-7.71,4.64s-7.71-2.07-7.71-4.64c0,0,6.24,0,7.71-4.63C52.81,77.16,58.64,77.16,58.64,77.16Z"/><path class="cls-9" d="M65.5,28.4c0,7.59-5.73,13.74-12.8,13.74S39.9,36,39.9,28.4c17.16-1.71,15.41-11.28,12.8-13.73C59.77,14.67,65.5,20.82,65.5,28.4Z"/></g></g></svg>