<svg xmlns="http://www.w3.org/2000/svg" viewBox="0 0 103.43 358.1"><defs><style>.cls-1{fill:#5f3f2b;}.cls-2{fill:#cb9392;}.cls-3{fill:#c17878;}.cls-4{fill:#a97c50;}.cls-5{fill:#64cafe;}.cls-6{fill:#5b4d49;}.cls-7{fill:#8ddfff;}</style></defs><title>M4</title><g id="Layer_2" data-name="Layer 2"><g id="Layer_3" data-name="Layer 3"><ellipse class="cls-1" cx="51.19" cy="43.25" rx="43.43" ry="43.25"/><polygon class="cls-2" points="64.34 351.24 54.11 351.24 54.11 216.11 75.52 216.11 64.34 351.24"/><rect class="cls-3" x="52.36" y="344.07" width="13.87" height="8.04" transform="translate(118.59 696.19) rotate(180)"/><polygon class="cls-2" points="37.64 351.24 47.86 351.24 47.86 216.11 26.46 216.11 37.64 351.24"/><path class="cls-4" d="M3.07,10.65c.22-1.7.43-3.21.63-4.54A6.38,6.38,0,0,1,16.33,8c-.19,1.3-.39,2.8-.6,4.51A292.38,292.38,0,0,0,14.26,62a.49.49,0,0,0,0,.12c2,40.41,21,47.85,21.15,47.92L31.37,122.1c-1.1-.38-26.92-9.54-29.78-58.12,0-.47-.06-.94-.08-1.41A303,303,0,0,1,3.07,10.65Z"/><path class="cls-4" d="M100.36,10.65c-.22-1.7-.43-3.21-.63-4.54A6.38,6.38,0,0,0,87.1,8c.19,1.3.39,2.8.6,4.51A292.38,292.38,0,0,1,89.17,62a.49.49,0,0,1,0,.12c-2,40.41-21,47.85-21.15,47.92l4,12.11c1.1-.38,26.92-9.54,29.78-58.12,0-.47.06-.94.08-1.41A303,303,0,0,0,100.36,10.65Z"/><rect class="cls-3" x="35" y="344.01" width="13.87" height="8.04" transform="translate(83.87 696.06) rotate(180)"/><path class="cls-5" d="M20.92,116V216.11H82.59V116c0-.3,0-.6,0-.91A16.44,16.44,0,0,0,66.15,99.53H37.37A16.45,16.45,0,0,0,21,115.07C20.93,115.38,20.92,115.68,20.92,116Z"/><path class="cls-5" d="M101.84,64c-4-.63-9.51-1.48-12.68-1.91-2,40.41-21,47.85-21.15,47.92l4,12.11C73.16,121.72,99,112.56,101.84,64Z"/><path class="cls-4" d="M51.76,106.2h0a6.59,6.59,0,0,0,6.59-6.59v-9.3H45.17v9.3A6.59,6.59,0,0,0,51.76,106.2Z"/><ellipse class="cls-4" cx="33.59" cy="63.49" rx="7.04" ry="7.49"/><ellipse class="cls-4" cx="68.95" cy="62.67" rx="7.04" ry="7.49"/><path class="cls-4" d="M51.27,93.07h0a18.55,18.55,0,0,0,18.5-18.5V45.92a18.55,18.55,0,0,0-18.5-18.5h0a18.56,18.56,0,0,0-18.5,18.5V74.57A18.56,18.56,0,0,0,51.27,93.07Z"/><path class="cls-1" d="M73.49,39c0-9-7.16-14-15.9-14H44.09c-8.74,0-15.89,5-15.89,14,0,0,1.73,25,4.56,28V51a10.17,10.17,0,0,1,10-10.32H59A10.17,10.17,0,0,1,68.93,51V67C71.75,64,73.49,39,73.49,39Z"/><rect class="cls-2" x="35.08" y="216.11" width="33.36" height="14.3" transform="translate(103.52 446.53) rotate(180)"/><path class="cls-6" d="M51.27,346.64h16a0,0,0,0,1,0,0v3.53a7.93,7.93,0,0,1-7.93,7.93H59.2a7.93,7.93,0,0,1-7.93-7.93v-3.53A0,0,0,0,1,51.27,346.64Z" transform="translate(118.59 704.74) rotate(180)"/><path class="cls-6" d="M33.91,346.64H50a0,0,0,0,1,0,0v3.53A7.93,7.93,0,0,1,42,358.1h-.19a7.93,7.93,0,0,1-7.93-7.93v-3.53A0,0,0,0,1,33.91,346.64Z" transform="translate(83.87 704.74) rotate(180)"/><rect class="cls-7" x="87.72" y="56.46" width="15.71" height="7.47"/><path class="cls-5" d="M1.59,64c4-.63,9.51-1.48,12.68-1.91,2,40.41,21,47.85,21.15,47.92L31.37,122.1C30.27,121.72,4.45,112.56,1.59,64Z"/><rect class="cls-7" y="56.46" width="15.71" height="7.47" transform="translate(15.71 120.39) rotate(180)"/><polygon class="cls-7" points="45.1 96.46 51.69 106.22 45.1 113.26 38.78 102.61 45.1 96.46"/><polygon class="cls-7" points="58.41 96.46 51.82 106.22 58.41 113.26 64.73 102.61 58.41 96.46"/></g></g></svg>